PathFileType	4	(X/Y/Z)	/Users/itak/Documents/Research/Walk-IL/dataset/trc/00144_00007.trc
DataRate	CameraRate	NumFrames	NumMarkers	Units	OrigDataRate	OrigDataStartFrame	OrigNumFrames
100.000000	100.000000	4	53	mm	100.000000	320	512
Frame#	Time	RPSI			LPSI			L3			STRN			T10			C7			CLAV			RBAK			LBAK			LSHO			LUPA			LAEL			LAOL			LWTS			LWPS			LFRA			LIFD			LHPS			LHTS			RSHO			RUPA			RAEL			RAOL			RWTS			RWPS			RFRA			RIFD			RHTS			RHPS			RBHD			LFHD			RFHD			LBHD			LHIP			RHIP			RASI			LASI			LKNE			LTHI			LANK			LTIP			LTOE			LMT1			LMT5			LHEE			RKNE			RTHI			RANK			RTIP			RTOE			RMT1			RMT5			RHEE			
		X1	Y1	Z1	X2	Y2	Z2	X3	Y3	Z3	X4	Y4	Z4	X5	Y5	Z5	X6	Y6	Z6	X7	Y7	Z7	X8	Y8	Z8	X9	Y9	Z9	X10	Y10	Z10	X11	Y11	Z11	X12	Y12	Z12	X13	Y13	Z13	X14	Y14	Z14	X15	Y15	Z15	X16	Y16	Z16	X17	Y17	Z17	X18	Y18	Z18	X19	Y19	Z19	X20	Y20	Z20	X21	Y21	Z21	X22	Y22	Z22	X23	Y23	Z23	X24	Y24	Z24	X25	Y25	Z25	X26	Y26	Z26	X27	Y27	Z27	X28	Y28	Z28	X29	Y29	Z29	X30	Y30	Z30	X31	Y31	Z31	X32	Y32	Z32	X33	Y33	Z33	X34	Y34	Z34	X35	Y35	Z35	X36	Y36	Z36	X37	Y37	Z37	X38	Y38	Z38	X39	Y39	Z39	X40	Y40	Z40	X41	Y41	Z41	X42	Y42	Z42	X43	Y43	Z43	X44	Y44	Z44	X45	Y45	Z45	X46	Y46	Z46	X47	Y47	Z47	X48	Y48	Z48	X49	Y49	Z49	X50	Y50	Z50	X51	Y51	Z51	X52	Y52	Z52	X53	Y53	Z53	

321	3.2	513.2555541992188	1110.663818359375	768.8816528320312	420.4874877929688	1116.267822265625	676.4368286132812	459.20458984375	1146.750610351562	728.6350708007812	602.885498046875	1351.673706054688	571.6818237304688	442.4920043945312	1295.105590820312	759.6216430664062	432.4763488769531	1587.503173828125	726.0706787109375	564.8504028320312	1484.411010742188	593.9991455078125	473.648681640625	1406.578369140625	827.2772216796875	352.2707214355469	1562.629516601562	663.372314453125	356.4126281738281	1546.706176757812	553.16943359375	291.5254211425781	1411.1484375	536.4470825195312	278.6572570800781	1193.163818359375	541.3781127929688	293.4815673828125	1191.02490234375	628.1170043945312	359.9572143554688	926.135009765625	510.4574584960938	295.6701965332031	910.1378784179688	569.3876342773438	280.6276245117188	1075.639770507812	539.430908203125	380.2914733886719	733.1354370117188	537.0226440429688	310.0117797851562	831.5062866210938	556.917236328125	357.2529296875	835.08154296875	506.9769897460938	604.619384765625	1580.53173828125	803.0853271484375	647.20654296875	1508.749145507812	856.2978515625	697.27783203125	1215.465942382812	860.2112426757812	613.0226440429688	1207.49169921875	807.7625732421875	805.7091674804688	1004.145568847656	705.5458374023438	792.9302368164062	974.7615356445312	781.67529296875	734.5056762695312	1147.8984375	841.8734130859375	842.2671508789062	819.6082763671875	649.5143432617188	844.9077758789062	906.3424682617188	670.7588500976562	832.6714477539062	885.3810424804688	740.0512084960938	518.4835205078125	1760.994384765625	748.97900390625	461.4024353027344	1833.372192382812	548.0084838867188	575.3851318359375	1853.663696289062	606.7442626953125	396.7318420410156	1742.027587890625	693.7573852539062	403.6880493164062	1035.495361328125	526.5883178710938	682.8190307617188	1012.008178710938	761.0147094726562	707.1893310546875	1088.576416015625	669.2109985351562	511.7104797363281	1096.35693359375	488.0296936035156	527.3794555664062	538.1345825195312	481.271728515625	464.5457458496094	675.5013427734375	496.9840698242188	571.6104125976562	29.73015213012695	536.416259765625	500.8216552734375	277.0588684082031	530.347412109375	735.101318359375	46.94140625	370.9831848144531	728.3189697265625	52.29143524169922	457.1373596191406	619.4874877929688	35.18213272094727	419.2207336425781	589.1304931640625	34.02548599243164	626.26708984375	646.752685546875	514.8571166992188	763.1764526367188	685.1829833984375	796.86669921875	745.1141967773438	382.5115051269531	130.3445434570312	1031.600830078125	591.7650146484375	408.9762268066406	841.7407836914062	492.6354675292969	38.55704879760742	863.4750366210938	424.2347717285156	46.53983306884766	865.548095703125	473.6418151855469	52.98363876342773	976.2215576171875	317.3512268066406	167.0562133789062	1021.212280273438	
322	3.21	518.363037109375	1110.697387695312	761.6544189453125	425.6952819824219	1116.921997070312	669.2705688476562	464.0481262207031	1147.101318359375	721.3496704101562	607.2027587890625	1352.463989257812	564.2940673828125	446.8894958496094	1295.400390625	752.259521484375	436.5223083496094	1587.8720703125	719.1483764648438	569.1341552734375	1485.161254882812	586.9153442382812	477.9427185058594	1406.76953125	819.9398803710938	356.4461059570312	1562.944702148438	656.34130859375	360.692138671875	1547.281616210938	546.1845092773438	296.0637817382812	1411.713012695312	528.7514038085938	283.6929626464844	1193.598266601562	532.2147827148438	298.2955932617188	1190.82421875	619.029541015625	366.7930908203125	927.71240234375	498.0924072265625	302.8900756835938	910.343505859375	557.09033203125	286.3628845214844	1076.109497070312	529.0762329101562	388.8893737792969	734.5762939453125	521.8868408203125	317.8066711425781	832.0410766601562	543.4982299804688	364.8473815917969	836.7061767578125	493.3840026855469	608.7418823242188	1580.962768554688	796.1930541992188	651.1476440429688	1509.201171875	849.581298828125	698.7284545898438	1215.672607421875	854.8646240234375	614.79736328125	1207.94384765625	801.7958374023438	805.9578247070312	1001.555236816406	703.1857299804688	792.2506713867188	973.1736450195312	779.5238037109375	735.3934326171875	1147.613403320312	837.430908203125	840.2312622070312	815.8737182617188	649.3505859375	843.9965209960938	902.7869873046875	669.6879272460938	831.0269165039062	882.76416015625	739.1212768554688	522.173095703125	1761.42529296875	742.5786743164062	464.4794006347656	1834.079223632812	541.8558349609375	578.5365600585938	1854.531005859375	600.3946533203125	400.3397521972656	1742.240844726562	687.5310668945312	407.7171630859375	1036.306030273438	519.551025390625	687.8927001953125	1012.141784667969	752.5324096679688	711.640380859375	1089.273803710938	660.908447265625	515.6685791015625	1097.031860351562	480.4397888183594	528.1575927734375	537.582275390625	478.1981506347656	466.2969055175781	675.5950927734375	492.9165344238281	571.6837768554688	29.74514198303223	536.3421630859375	501.1154174804688	277.0979309082031	529.0858154296875	735.3426513671875	46.33818817138672	370.8608703613281	728.5482788085938	52.11898040771484	457.1093444824219	619.6094360351562	35.08349227905273	419.1490478515625	589.1201782226562	34.1004753112793	626.2076416015625	658.7874755859375	514.6538696289062	749.662109375	692.7926025390625	797.3126831054688	734.4880981445312	390.8045959472656	138.8765563964844	1026.845825195312	603.6261596679688	409.9188537597656	829.24267578125	494.3790893554688	38.64791107177734	862.2000732421875	426.739013671875	47.95503234863281	863.0914916992188	477.356689453125	55.36571884155273	973.1976318359375	327.186767578125	177.6667175292969	1015.496765136719	
323	3.22	523.3575439453125	1110.561889648438	754.5965576171875	430.6308898925781	1117.392333984375	662.3311157226562	468.7330322265625	1147.333129882812	714.1624145507812	611.4385986328125	1353.06201171875	557.0296020507812	451.1074523925781	1295.585205078125	745.0357055664062	440.56494140625	1588.143920898438	712.2567749023438	573.3694458007812	1485.72509765625	579.924072265625	482.082275390625	1406.858276367188	812.7062377929688	360.5961303710938	1563.154541015625	649.3497314453125	364.9635620117188	1547.696411132812	539.2469482421875	300.5926818847656	1412.121459960938	521.0668334960938	288.7442626953125	1193.869140625	522.86962890625	303.0031127929688	1190.33447265625	609.7691650390625	373.7191772460938	929.21435546875	485.5298767089844	310.0980529785156	910.4368896484375	544.4784545898438	292.1488952636719	1076.438232421875	518.4851684570312	397.5667419433594	735.9918823242188	506.4056396484375	325.6112365722656	832.5107421875	529.709228515625	372.5459594726562	838.3189697265625	479.482666015625	612.8770751953125	1581.186767578125	789.3679809570312	655.0708618164062	1509.410034179688	842.9169921875	700.2977294921875	1215.699951171875	849.5286254882812	616.7225341796875	1208.16064453125	795.8658447265625	806.157958984375	998.779541015625	700.8981323242188	791.6076049804688	971.4547119140625	777.4605102539062	736.3865966796875	1147.171020507812	832.9934692382812	838.261962890625	812.0140380859375	649.3865356445312	843.084716796875	899.10107421875	668.751708984375	829.4450073242188	880.0653686523438	738.3301391601562	525.9163818359375	1761.654663085938	736.1953125	467.5393371582031	1834.654296875	535.7650146484375	581.677978515625	1855.273193359375	594.07958984375	403.9981994628906	1742.240356445312	681.3445434570312	411.662353515625	1037.012329101562	512.641357421875	692.8698120117188	1012.104858398438	744.2073974609375	715.9962768554688	1089.800659179688	652.7742919921875	519.4998779296875	1097.528076171875	472.9805297851562	528.908447265625	536.9979248046875	475.3840026855469	468.05859375	675.6162719726562	489.0843505859375	571.7938842773438	29.79821395874023	536.3004760742188	501.4188232421875	277.1043701171875	527.9586791992188	735.6578979492188	45.70820617675781	370.8228149414062	728.8052978515625	51.81931686401367	457.115478515625	619.7344360351562	35.02811813354492	419.1118469238281	589.1466064453125	34.17214965820312	626.1860961914062	670.6919555664062	514.5087890625	735.9246826171875	700.3115844726562	797.7342529296875	723.8245239257812	399.8997497558594	147.0481567382812	1021.354187011719	615.5994873046875	410.7698059082031	816.4046020507812	497.4369812011719	38.96786117553711	859.9891357421875	430.4736633300781	49.74126434326172	859.822998046875	482.1766662597656	58.09352493286133	969.3712158203125	337.7042541503906	187.6174621582031	1009.166748046875	
324	3.23	528.2469482421875	1110.299072265625	747.7032470703125	435.3172912597656	1117.707275390625	655.603759765625	473.271484375	1147.480102539062	707.0850830078125	615.588134765625	1353.503173828125	549.9046020507812	455.1509704589844	1295.690551757812	737.9746704101562	444.6024475097656	1588.348266601562	705.424560546875	577.55029296875	1486.137084960938	573.0438232421875	486.0919494628906	1406.869018554688	805.5932006835938	364.7127075195312	1563.289672851562	642.4358520507812	369.2127075195312	1547.982666015625	532.3923950195312	305.1046142578125	1412.404907226562	513.4217529296875	293.8401184082031	1194.012817382812	513.3355102539062	307.6575317382812	1189.575317382812	600.3206787109375	380.7536010742188	930.65185546875	472.8064270019531	317.2886352539062	910.4564208984375	531.5695190429688	298.0085144042969	1076.661987304688	507.6625366210938	406.2770385742188	737.3987426757812	490.6440734863281	333.406005859375	832.9513549804688	515.5843505859375	380.3328857421875	839.94677734375	465.3109741210938	617.0191650390625	1581.242431640625	782.6289672851562	658.9750366210938	1509.415283203125	836.3201904296875	701.9810791015625	1215.5810546875	844.1945190429688	618.7940063476562	1208.218139648438	789.9530029296875	806.3087768554688	995.8578491210938	698.6763305664062	790.9900512695312	969.6470336914062	775.4769287109375	737.4796752929688	1146.607421875	828.5516967773438	836.3759155273438	808.0692138671875	649.6367797851562	842.1817626953125	895.3261108398438	667.9558715820312	827.9280395507812	877.329345703125	737.6815185546875	529.7174072265625	1761.727661132812	729.83447265625	470.5916748046875	1835.117553710938	529.733642578125	584.8177490234375	1855.912963867188	587.79638671875	407.7135314941406	1742.067504882812	675.2036743164062	415.5198974609375	1037.647827148438	505.8728332519531	697.7879638671875	1011.940368652344	735.9954833984375	720.2723999023438	1090.187377929688	644.78759765625	523.1882934570312	1097.885131835938	465.6660766601562	529.6788330078125	536.4247436523438	472.7905578613281	469.87158203125	675.5977172851562	485.4305114746094	571.91943359375	29.87303733825684	536.27734375	501.7306518554688	277.0999755859375	526.9188232421875	736.0272216796875	45.05206298828125	370.85693359375	729.071044921875	51.42035675048828	457.1549072265625	619.8589477539062	35.00545120239258	419.0996704101562	589.180908203125	34.24160003662109	626.1870727539062	682.3765869140625	514.4512939453125	721.9612426757812	707.7184448242188	798.1474609375	713.1106567382812	409.7973327636719	154.6163787841797	1015.051696777344	627.5626831054688	411.5834350585938	803.2763061523438	502.2173767089844	39.59455871582031	856.52294921875	435.7702941894531	51.91221237182617	855.5076904296875	488.39697265625	61.1610107421875	964.5322875976562	348.7936706542969	196.584716796875	1002.204895019531	
